<?xml version="1.0" encoding="UTF-8"?>
<svg width="188px" height="115px" viewBox="0 0 188 115" version="1.1" xmlns="http://www.w3.org/2000/svg" xmlns:xlink="http://www.w3.org/1999/xlink">
    <!-- Generator: Sketch 52.5 (67469) - http://www.bohemiancoding.com/sketch -->
    <title>Image / Book Imagechild</title>
    <desc>Created with Sketch.</desc>
    <g id="Image-/-Book-Image" stroke="none" stroke-width="1" fill="none" fill-rule="evenodd">
        <g id="Book-Image">
            <g id="Background-Shape-2" fill="#FFF9E4" fill-rule="nonzero">
                <path d="M37.7449869,34.9160156 C23.9277851,45.8316589 52.4388609,68.4395983 57.2348658,79.2202148 C62.0308707,90.0008314 59.9158003,100.278972 75.5297877,103.476563 C91.143775,106.674153 122.411637,104.831735 133.882818,93.1470261 C145.353998,81.4623172 167.375035,48.6339054 143.852053,41 C120.329071,33.3660946 113.561095,20.9938019 103.127578,11.1074932 C92.6940607,1.2211845 70.3303585,4.91387344 63.4041035,11.1074932 C56.4778486,17.301113 51.5621888,24.0003723 37.7449869,34.9160156 Z" id="Path-2"></path>
            </g>
            <g id="Group-7" transform="translate(62.000000, 8.000000)">
                <g id="Book-image" stroke="#262425">
                    <g>
                        <polygon id="Path-5" fill-rule="nonzero" points="0 7 9.37555669e-17 74 55 74 55 7"></polygon>
                        <polyline id="Path" fill-rule="nonzero" points="61.3372941 67.8813477 64 67.8813477 64 0 12.1221133 0 0 7.15411887"></polyline>
                        <polyline id="Path" fill-rule="nonzero" points="12 3 59.7739258 3 59.7739258 71.2202148 55.7608817 71.2202148"></polyline>
                    </g>
                </g>
                <g id="Book-icon-/-Children" transform="translate(14.000000, 31.000000)" fill="#000000">
                    <g id="baby-solid" transform="translate(6.000000, 0.000000)">
                        <path d="M7.46215094,6.25 C9.18031868,6.25 10.5719568,4.8515625 10.5719568,3.125 C10.5719568,1.3984375 9.18031868,0 7.46215094,0 C5.7439832,0 4.35234507,1.3984375 4.35234507,3.125 C4.35234507,4.8515625 5.7439832,6.25 7.46215094,6.25 Z M5.38635552,15.96875 L6.3814934,14.71875 L3.99083014,12.71875 L2.20657902,14.9609375 C1.76343168,15.515625 1.75176991,16.3046875 2.17548096,16.875 L4.04136448,19.375 C4.34845781,19.7851562 4.81492869,20 5.28528683,20 C5.60792919,20 5.93834606,19.8984375 6.21822859,19.6875 C6.90627314,19.171875 7.04232715,18.1914062 6.52920918,17.5 L5.38635552,15.96875 Z M10.9334717,12.71875 L8.54280848,14.71875 L9.53794636,15.96875 L8.3950927,17.5 C7.88197473,18.1914062 8.01802874,19.171875 8.70607329,19.6875 C8.98595582,19.8984375 9.31248543,20 9.63901505,20 C10.1132604,20 10.5797313,19.7851562 10.8829374,19.375 L12.7488209,16.875 C13.172532,16.3046875 13.1608702,15.515625 12.7177229,14.9609375 L10.9334717,12.71875 Z M14.6419152,5.6640625 C14.1482336,4.95703125 13.1803065,4.7890625 12.4767129,5.28125 L10.8984864,6.39453125 C8.84990181,7.83984375 6.07051281,7.83984375 4.02581545,6.39453125 L2.44758897,5.28515625 C1.7439954,4.7890625 0.776068319,4.9609375 0.282386637,5.6640625 C-0.211295045,6.37109375 -0.040255722,7.34375 0.659450599,7.83984375 L2.23767708,8.953125 C2.89851083,9.41796875 3.61376618,9.76953125 4.35234507,10.0429688 L4.35234507,11.25 L10.5719568,11.25 L10.5719568,10.046875 C11.3105357,9.7734375 12.0257911,9.421875 12.6866248,8.95703125 L14.2648513,7.84375 C14.9684449,7.34375 15.1355969,6.37109375 14.6419152,5.6640625 Z" id="Shape" fill-rule="nonzero"></path>
                    </g>
                </g>
            </g>
        </g>
    </g>
</svg>