<?xml version="1.0" encoding="UTF-8"?>
<svg width="188px" height="115px" viewBox="0 0 188 115" version="1.1" xmlns="http://www.w3.org/2000/svg" xmlns:xlink="http://www.w3.org/1999/xlink">
    <!-- Generator: Sketch 52.5 (67469) - http://www.bohemiancoding.com/sketch -->
    <title>Image / Book Imagecook</title>
    <desc>Created with Sketch.</desc>
    <g id="Image-/-Book-Image" stroke="none" stroke-width="1" fill="none" fill-rule="evenodd">
        <g id="Book-Image">
            <g id="Background-Shape-3" fill="#EBFCFA" fill-rule="nonzero">
                <path d="M101.465433,5.66983374 C109.06078,4.45156509 125.118264,-7.54994584 131.186388,-5.33841885 C163.569816,6.46371632 147.209921,27.9062969 148.052607,44.6614367 C148.906548,61.6403801 114.802636,76.7397439 106.83768,88.2172771 C102.84509,93.9706155 107.659256,111.879887 97.4496716,119.278218 C87.2918046,126.639072 62.1582974,135.141057 51.1342952,119.278218 C40.110293,103.415378 59.7689342,92.1893873 54.23874,81.4082719 C48.7085458,70.6271564 44.0478451,49.267973 61.3189008,43.1070812 C78.5899564,36.9461893 67.4813196,11.1207739 101.465433,5.66983374 Z" id="Path-4" transform="translate(99.582283, 61.326067) rotate(43.000000) translate(-99.582283, -61.326067) "></path>
            </g>
            <g id="Group-7" transform="translate(62.000000, 8.000000)">
                <g id="Book-image" stroke="#262425">
                    <g>
                        <polygon id="Path-5" fill-rule="nonzero" points="0 7 9.37555669e-17 74 55 74 55 7"></polygon>
                        <polyline id="Path" fill-rule="nonzero" points="61.3372941 67.8813477 64 67.8813477 64 0 12.1221133 0 0 7.15411887"></polyline>
                        <polyline id="Path" fill-rule="nonzero" points="12 3 59.7739258 3 59.7739258 71.2202148 55.7608817 71.2202148"></polyline>
                    </g>
                </g>
                <g id="Book-icon-/-Cooking" transform="translate(14.000000, 31.000000)" fill="#000000">
                    <g id="turkey-solid" transform="translate(1.000000, 0.000000)">
                        <path d="M23.1462452,3.26672978 C22.8252816,3.20774517 22.511304,3.23469841 22.2175079,3.31946437 C22.4973322,2.93704096 22.6677107,2.46086718 22.6153164,1.90148993 C22.5388595,1.0893773 21.9850325,0.359296251 21.2146423,0.10577961 C19.9990948,-0.29461262 18.7587085,0.485078006 18.5378762,1.71242668 C18.4874225,1.9921153 18.4963489,2.26789765 18.5545648,2.52805495 C18.6915662,3.14016678 18.5017824,3.77962247 17.9890946,4.13704577 C17.3883067,4.55618808 17.0487141,4.82493916 16.1234697,5.23001891 C14.6312027,4.32298402 12.9561378,3.74993485 11.1774487,3.74993485 C5.00423692,3.74993485 0,10.5128526 0,14.99998 C0,19.4871073 5.00423692,20 11.1774487,20 C17.3506604,20 22.3548973,19.4874979 22.3548973,14.99998 C22.3548973,13.0472377 21.4024856,10.6663688 19.8228947,8.59721991 C18.3609,9.83003735 17.7539024,11.2046522 17.455449,12.1206715 C16.7161074,14.3917744 14.8116719,16.0007652 12.6037377,16.2195161 C12.3976535,16.2398287 12.1946741,16.249985 11.9944115,16.249985 C10.078721,16.249985 8.35359046,15.3531064 7.26184868,13.7890376 C6.80194324,13.1300506 6.49184666,12.3898132 6.33544,11.6179351 C6.29662942,11.4273094 6.45031934,11.2499649 6.64359605,11.2499649 L7.28125398,11.2499649 C7.42640557,11.2499649 7.54710649,11.3530903 7.58048359,11.4952784 C8.04232956,13.4554425 9.76629578,14.99998 11.9944115,14.99998 C12.1546992,14.99998 12.3169275,14.9921674 12.4818725,14.9757611 C14.2609497,14.7995885 15.7159586,13.4499737 16.2752191,11.7316075 C17.0793744,9.26050382 18.7230027,7.77768537 19.7930106,7.02807299 C20.3658548,6.62689951 21.0920009,6.70189981 21.6795932,7.08080758 C22.0102593,7.29408968 22.4103965,7.41557454 22.8540015,7.40346512 C23.6651427,7.38119941 24.4110822,6.84174412 24.6982805,6.07767855 C25.1725459,4.81595475 24.3932293,3.49602758 23.1462452,3.26672978 Z" id="Path"></path>
                    </g>
                </g>
            </g>
        </g>
    </g>
</svg>