<?xml version="1.0" encoding="UTF-8"?>
<svg width="188px" height="115px" viewBox="0 0 188 115" version="1.1" xmlns="http://www.w3.org/2000/svg" xmlns:xlink="http://www.w3.org/1999/xlink">
    <!-- Generator: Sketch 52.5 (67469) - http://www.bohemiancoding.com/sketch -->
    <title>Image / Book Imagefantasy</title>
    <desc>Created with Sketch.</desc>
    <g id="Image-/-Book-Image" stroke="none" stroke-width="1" fill="none" fill-rule="evenodd">
        <g id="Book-Image">
            <g id="Background-Shape-4" fill="#F7F6D4" fill-rule="nonzero">
                <path d="M68.1375196,107.740089 C82.2957227,107.740089 87.8367383,91.3201669 103.811348,89.3201669 C119.785957,87.3201669 140.541816,91.7713388 152.528145,78.4803232 C164.514473,65.1893076 152.935532,15.6678232 121.504707,18.3201669 C90.0738819,20.9725107 83.1238477,3.44321382 57.1668165,6.32016695 C31.2097852,9.19712007 26.8797071,46.1832112 40.7410352,56.987866 C54.6023633,67.7925209 45.5066602,81.3201669 45.5066602,89.3201669 C45.5066602,97.3201669 53.9793165,107.740089 68.1375196,107.740089 Z" id="Path-3"></path>
            </g>
            <g id="Group-7" transform="translate(62.000000, 8.000000)">
                <g id="Book-image" stroke="#262425">
                    <g>
                        <polygon id="Path-5" fill-rule="nonzero" points="0 7 9.37555669e-17 74 55 74 55 7"></polygon>
                        <polyline id="Path" fill-rule="nonzero" points="61.3372941 67.8813477 64 67.8813477 64 0 12.1221133 0 0 7.15411887"></polyline>
                        <polyline id="Path" fill-rule="nonzero" points="12 3 59.7739258 3 59.7739258 71.2202148 55.7608817 71.2202148"></polyline>
                    </g>
                </g>
                <g id="Book-icon-/-Fantasy" transform="translate(14.000000, 31.000000)" fill="#000000">
                    <g id="dragon-solid" transform="translate(2.000000, 1.000000)">
                        <path d="M0.676166213,9.49183591 L7.08645813,8.3110156 L3.71743783,10.8600586 C3.34539878,11.2341211 3.60892644,11.8735156 4.1348745,11.8735156 L12.3544278,11.8735156 C12.0060102,10.8938281 11.8107635,9.85216794 11.8107635,8.77933591 L11.8107635,7.21072263 L7.39169255,3.95994139 C6.51252884,3.37064452 5.35101406,3.44003905 4.54751305,4.13027342 L0.214439176,8.4475781 C-0.242489739,8.83091794 0.0871043812,9.57644528 0.676166213,9.49183591 Z M21.2294784,10.7572656 L17.5142551,8.89029294 C16.9142143,8.58865268 16.5351485,7.97206791 16.535069,7.29755857 L16.535069,5.93601561 L18.8972217,5.93601561 L19.9339853,6.77580076 C20.1554371,6.99845701 20.4558734,7.1235156 20.7692277,7.1235156 L21.9122882,7.1235156 C22.3596315,7.12348626 22.768567,6.86934886 22.9686133,6.46705076 L23.4967759,5.40498045 C23.6968015,5.0026857 23.6536526,4.5213002 23.3853118,4.1614453 L20.6345112,0.473515624 C20.4112139,0.174414062 20.0613201,0 19.6896501,0 L10.9256945,0 C10.6625359,0 10.5307721,0.318027343 10.7167916,0.505058592 L12.9918399,2.37351562 L10.7928234,3.29531249 C10.5750624,3.40478515 10.5750624,3.71687499 10.7928234,3.82634764 L12.9918399,4.74851561 L12.9918399,8.77933591 C12.9918399,11.4541797 14.3216581,13.9520117 16.535069,15.4360156 C9.31610884,15.6887304 3.81782932,16.957871 0.513030042,17.6963476 C0.213331917,17.7631445 0,18.0307031 0,18.3394531 C0,18.7031249 0.293423657,18.9999999 0.655497377,18.9999999 L19.0758595,18.9999999 C21.4118071,19.000371 23.4905014,17.2350781 23.6152526,14.8897656 C23.7082624,13.1352343 22.7763193,11.5350781 21.2294784,10.7572656 Z M18.0549666,2.45849609 L19.7398458,2.88191405 C19.6383471,3.28677733 19.2795951,3.58291015 18.8492405,3.55953124 C18.3709045,3.53318358 17.8951522,3.09455077 18.0549666,2.45849609 Z" id="Shape" fill-rule="nonzero"></path>
                    </g>
                </g>
            </g>
        </g>
    </g>
</svg>