<?xml version="1.0" encoding="UTF-8"?>
<svg width="188px" height="115px" viewBox="0 0 188 115" version="1.1" xmlns="http://www.w3.org/2000/svg" xmlns:xlink="http://www.w3.org/1999/xlink">
    <!-- Generator: Sketch 52.5 (67469) - http://www.bohemiancoding.com/sketch -->
    <title>Image / Book Imagenovel</title>
    <desc>Created with Sketch.</desc>
    <g id="Image-/-Book-Image" stroke="none" stroke-width="1" fill="none" fill-rule="evenodd">
        <g id="Book-Image">
            <g id="Background-Shape-1" fill="#F8EFF3" fill-rule="nonzero">
                <path d="M84.8612305,34.3658543 C96.9641866,23.8085222 101.444047,8.47663883 125.309693,10.3719178 C149.175339,12.2671968 158.035425,38.2048841 158.035425,50.681731 C158.035425,63.158578 156.440309,84.5911072 138.694758,91.9513017 C120.949208,99.3114962 99.0969613,84.5911072 84.8612305,87.1525144 C70.6254997,89.7139216 70.6254997,107.801226 52.2783733,105.387906 C33.9312468,102.974586 24.6199791,81.8071698 32.3662094,63.158578 C40.1124397,44.5099862 72.7582744,44.9231863 84.8612305,34.3658543 Z" id="Path" transform="translate(93.830486, 57.910312) rotate(-2.000000) translate(-93.830486, -57.910312) "></path>
            </g>
            <g id="Group-7" transform="translate(62.000000, 8.000000)">
                <g id="Book-image" stroke="#262425">
                    <g>
                        <polygon id="Path-5" fill-rule="nonzero" points="0 7 9.37555669e-17 74 55 74 55 7"></polygon>
                        <polyline id="Path" fill-rule="nonzero" points="61.3372941 67.8813477 64 67.8813477 64 0 12.1221133 0 0 7.15411887"></polyline>
                        <polyline id="Path" fill-rule="nonzero" points="12 3 59.7739258 3 59.7739258 71.2202148 55.7608817 71.2202148"></polyline>
                    </g>
                </g>
                <g id="Book-icon-/-Novel" transform="translate(14.000000, 31.000000)" fill="#000000">
                    <g id="feather-alt-solid" transform="translate(3.000000, 0.000000)">
                        <path d="M20,0 C17.977324,0.139063179 3.76702897,1.49219479 2.7736599,11.2348205 C2.6529556,12.2762318 2.58459555,13.3223307 2.53967324,14.3692108 L9.52685085,7.38909858 C9.77099386,7.14495676 10.1674821,7.14495676 10.4116251,7.38909858 C10.6557681,7.6332404 10.6557681,8.02894545 10.4116251,8.27308727 L0.274807371,18.3996992 C-0.0916024571,18.7657166 -0.0916024571,19.3594695 0.274807371,19.7254869 C0.641217199,20.0915044 1.23536363,20.0915044 1.60216408,19.7254869 L3.8338265,17.4961792 C5.47798318,17.4907104 7.12096798,17.3973506 8.75418705,17.2086778 C10.84327,16.9961767 12.5440678,16.1746884 13.9331439,15.0000732 L9.98974599,15.0000732 L15.7237864,13.0906889 C16.1632438,12.5090455 16.5585601,11.8910737 16.9132511,11.2500549 L13.7436889,11.2500549 L17.9054483,9.17152916 C19.5425737,5.18986909 19.9292962,1.02578626 20,0 Z" id="Path"></path>
                    </g>
                </g>
            </g>
        </g>
    </g>
</svg>