<?xml version="1.0" encoding="UTF-8"?>
<svg width="188px" height="115px" viewBox="0 0 188 115" version="1.1" xmlns="http://www.w3.org/2000/svg" xmlns:xlink="http://www.w3.org/1999/xlink">
    <!-- Generator: Sketch 52.5 (67469) - http://www.bohemiancoding.com/sketch -->
    <title>Image / Book Imagemystery</title>
    <desc>Created with Sketch.</desc>
    <g id="Image-/-Book-Image" stroke="none" stroke-width="1" fill="none" fill-rule="evenodd">
        <g id="Book-Image">
            <g id="Background-Shape-2" fill="#FFF9E4" fill-rule="nonzero">
                <path d="M37.7449869,34.9160156 C23.9277851,45.8316589 52.4388609,68.4395983 57.2348658,79.2202148 C62.0308707,90.0008314 59.9158003,100.278972 75.5297877,103.476563 C91.143775,106.674153 122.411637,104.831735 133.882818,93.1470261 C145.353998,81.4623172 167.375035,48.6339054 143.852053,41 C120.329071,33.3660946 113.561095,20.9938019 103.127578,11.1074932 C92.6940607,1.2211845 70.3303585,4.91387344 63.4041035,11.1074932 C56.4778486,17.301113 51.5621888,24.0003723 37.7449869,34.9160156 Z" id="Path-2"></path>
            </g>
            <g id="Group-7" transform="translate(62.000000, 8.000000)">
                <g id="Book-image" stroke="#262425">
                    <g>
                        <polygon id="Path-5" fill-rule="nonzero" points="0 7 9.37555669e-17 74 55 74 55 7"></polygon>
                        <polyline id="Path" fill-rule="nonzero" points="61.3372941 67.8813477 64 67.8813477 64 0 12.1221133 0 0 7.15411887"></polyline>
                        <polyline id="Path" fill-rule="nonzero" points="12 3 59.7739258 3 59.7739258 71.2202148 55.7608817 71.2202148"></polyline>
                    </g>
                </g>
                <g id="Book-icon-/-Mystery" transform="translate(14.000000, 31.000000)" fill="#000000">
                    <g id="question-solid" transform="translate(7.000000, 0.000000)">
                        <path d="M6.91033603,0 C3.78390867,0 1.75891252,1.27746094 0.169083527,3.55570313 C-0.119317539,3.96898438 -0.0304039958,4.535625 0.371900411,4.83984375 L2.06157108,6.11753906 C2.46787072,6.42476563 3.04596543,6.35292969 3.36405657,5.95550781 C4.34519989,4.7296875 5.07299837,4.02390625 6.60556234,4.02390625 C7.81055628,4.02390625 9.30101361,4.79730469 9.30101361,5.96261719 C9.30101361,6.84355469 8.57180505,7.29597656 7.38200867,7.96121094 C5.99452654,8.73699219 4.15844228,9.70246094 4.15844228,12.1176563 L4.15844228,12.5 C4.15844228,13.0177734 4.57931278,13.4375 5.09849737,13.4375 L7.9371112,13.4375 C8.45629578,13.4375 8.87716628,13.0177734 8.87716628,12.5 L8.87716628,12.2744922 C8.87716628,10.6002734 13.7837838,10.5305469 13.7837838,6 C13.783823,2.588125 10.2350367,0 6.91033603,0 Z M6.51782387,14.5882422 C5.0217262,14.5882422 3.80455071,15.8021094 3.80455071,17.2941406 C3.80455071,18.7861328 5.0217262,20 6.51782387,20 C8.01392153,20 9.23109702,18.7861328 9.23109702,17.2941016 C9.23109702,15.8020703 8.01392153,14.5882422 6.51782387,14.5882422 Z" id="Shape" fill-rule="nonzero"></path>
                    </g>
                </g>
            </g>
        </g>
    </g>
</svg>