<?xml version="1.0" encoding="UTF-8"?>
<svg width="188px" height="115px" viewBox="0 0 188 115" version="1.1" xmlns="http://www.w3.org/2000/svg" xmlns:xlink="http://www.w3.org/1999/xlink">
    <!-- Generator: Sketch 52.5 (67469) - http://www.bohemiancoding.com/sketch -->
    <title>Image / Book Imagenon-fiction</title>
    <desc>Created with Sketch.</desc>
    <g id="Image-/-Book-Image" stroke="none" stroke-width="1" fill="none" fill-rule="evenodd">
        <g id="Book-Image">
            <g id="Background-Shape-5" fill="#FFF4E7" fill-rule="nonzero">
                <path d="M81.8457569,24.2869787 C89.4411037,23.06871 97.8435607,12.452313 117.395181,9.13217823 C151.101864,3.40831882 165.620547,20.9714411 166.463233,37.7265809 C167.317175,54.7055243 117.15701,76.8123429 106.549986,86.7035526 C96.487503,96.0869699 98.3618145,111.558406 88.1522305,118.956737 C77.9943636,126.317591 57.8962759,130.473493 47.2123213,125.637521 C36.5283668,120.80155 30.1938562,118.859327 24.663662,108.078212 C19.1334678,97.2970963 23.8686701,76.3664671 41.1397258,70.2055752 C58.4107815,64.0446833 47.861643,29.7379188 81.8457569,24.2869787 Z" id="Path-4" transform="translate(94.472871, 67.872929) scale(-1, 1) rotate(43.000000) translate(-94.472871, -67.872929) "></path>
            </g>
            <g id="Group-7" transform="translate(62.000000, 8.000000)">
                <g id="Book-image" stroke="#262425">
                    <g>
                        <polygon id="Path-5" fill-rule="nonzero" points="0 7 9.37555669e-17 74 55 74 55 7"></polygon>
                        <polyline id="Path" fill-rule="nonzero" points="61.3372941 67.8813477 64 67.8813477 64 0 12.1221133 0 0 7.15411887"></polyline>
                        <polyline id="Path" fill-rule="nonzero" points="12 3 59.7739258 3 59.7739258 71.2202148 55.7608817 71.2202148"></polyline>
                    </g>
                </g>
                <g id="Book-icon-/-Non-Fiction" transform="translate(14.000000, 31.000000)" fill="#000000">
                    <g id="landmark-solid" transform="translate(4.000000, 1.000000)">
                        <path d="M18.6148047,3.41814361 L9.91710938,0.0757020039 C9.64832377,-0.0252340013 9.35204732,-0.0252340013 9.08326172,0.0757020039 L0.385195313,3.41814361 C0.15350507,3.50507462 1.85621263e-05,3.72658021 0,3.97404208 L0,5.34374919 C0,5.67179609 0.265703125,5.93749923 0.59375,5.93749923 L18.40625,5.93749923 C18.7342969,5.93749923 19,5.67179609 19,5.34374919 L19,3.97404208 C19,3.72652253 18.8463672,3.50497955 18.6148047,3.41814361 Z M2.375,7.1249993 L2.375,13.0624996 L1.78125,13.0624996 C1.45320313,13.0624996 1.1875,13.3282028 1.1875,13.6562497 L1.1875,15.4374998 L17.8125,15.4374998 L17.8125,13.6562497 C17.8125,13.3282028 17.5467969,13.0624996 17.21875,13.0624996 L16.625,13.0624996 L16.625,7.1249993 L14.25,7.1249993 L14.25,13.0624996 L10.6875,13.0624996 L10.6875,7.1249993 L8.3125,7.1249993 L8.3125,13.0624996 L4.75,13.0624996 L4.75,7.1249993 L2.375,7.1249993 Z M18.40625,16.6249999 L0.59375,16.6249999 C0.265703125,16.6249999 0,16.890703 0,17.2187499 L0,18.40625 C0,18.7342969 0.265703125,19 0.59375,19 L18.40625,19 C18.7342969,19 19,18.7342969 19,18.40625 L19,17.2187499 C19,16.890703 18.7342969,16.6249999 18.40625,16.6249999 Z" id="Shape" fill-rule="nonzero"></path>
                    </g>
                </g>
            </g>
        </g>
    </g>
</svg>