<?xml version="1.0" encoding="UTF-8"?>
<svg width="188px" height="115px" viewBox="0 0 188 115" version="1.1" xmlns="http://www.w3.org/2000/svg" xmlns:xlink="http://www.w3.org/1999/xlink">
    <!-- Generator: Sketch 52.5 (67469) - http://www.bohemiancoding.com/sketch -->
    <title>Image / Book Imagesci-fi</title>
    <desc>Created with Sketch.</desc>
    <g id="Image-/-Book-Image" stroke="none" stroke-width="1" fill="none" fill-rule="evenodd">
        <g id="Book-Image">
            <g id="Background-Shape-4" fill="#F7F6D4" fill-rule="nonzero">
                <path d="M68.1375196,107.740089 C82.2957227,107.740089 87.8367383,91.3201669 103.811348,89.3201669 C119.785957,87.3201669 140.541816,91.7713388 152.528145,78.4803232 C164.514473,65.1893076 152.935532,15.6678232 121.504707,18.3201669 C90.0738819,20.9725107 83.1238477,3.44321382 57.1668165,6.32016695 C31.2097852,9.19712007 26.8797071,46.1832112 40.7410352,56.987866 C54.6023633,67.7925209 45.5066602,81.3201669 45.5066602,89.3201669 C45.5066602,97.3201669 53.9793165,107.740089 68.1375196,107.740089 Z" id="Path-3"></path>
            </g>
            <g id="Group-7" transform="translate(62.000000, 8.000000)">
                <g id="Book-image" stroke="#262425">
                    <g>
                        <polygon id="Path-5" fill-rule="nonzero" points="0 7 9.37555669e-17 74 55 74 55 7"></polygon>
                        <polyline id="Path" fill-rule="nonzero" points="61.3372941 67.8813477 64 67.8813477 64 0 12.1221133 0 0 7.15411887"></polyline>
                        <polyline id="Path" fill-rule="nonzero" points="12 3 59.7739258 3 59.7739258 71.2202148 55.7608817 71.2202148"></polyline>
                    </g>
                </g>
                <g id="Book-icon-/-Sci-Fi" transform="translate(14.000000, 31.000000)" fill="#000000">
                    <g id="robot-solid" transform="translate(2.000000, 1.000000)">
                        <path d="M0,9.5 L0,14.25 C0,14.9068359 0.527795608,15.4375 1.18108108,15.4375 L2.36216216,15.4375 L2.36216216,8.3125 L1.18108108,8.3125 C0.527795608,8.3125 0,8.84316406 0,9.5 Z M17.1256757,3.5625 L12.9918919,3.5625 L12.9918919,1.1875 C12.9918919,0.530664062 12.4640963,0 11.8108108,0 C11.1575253,0 10.6297297,0.530664062 10.6297297,1.1875 L10.6297297,3.5625 L6.49594595,3.5625 C4.8645777,3.5625 3.54324324,4.89101563 3.54324324,6.53125 L3.54324324,16.625 C3.54324324,17.9349609 4.60252534,19 5.90540541,19 L17.7162162,19 C19.0190963,19 20.0783784,17.9349609 20.0783784,16.625 L20.0783784,6.53125 C20.0783784,4.89101563 18.7570439,3.5625 17.1256757,3.5625 Z M9.44864865,15.4375 L7.08648649,15.4375 L7.08648649,14.25 L9.44864865,14.25 L9.44864865,15.4375 Z M8.26756757,10.984375 C7.45188345,10.984375 6.79121622,10.3201172 6.79121622,9.5 C6.79121622,8.67988281 7.45188345,8.015625 8.26756757,8.015625 C9.08325169,8.015625 9.74391892,8.67988281 9.74391892,9.5 C9.74391892,10.3201172 9.08325169,10.984375 8.26756757,10.984375 Z M12.9918919,15.4375 L10.6297297,15.4375 L10.6297297,14.25 L12.9918919,14.25 L12.9918919,15.4375 Z M16.5351351,15.4375 L14.172973,15.4375 L14.172973,14.25 L16.5351351,14.25 L16.5351351,15.4375 Z M15.3540541,10.984375 C14.5383699,10.984375 13.8777027,10.3201172 13.8777027,9.5 C13.8777027,8.67988281 14.5383699,8.015625 15.3540541,8.015625 C16.1697382,8.015625 16.8304054,8.67988281 16.8304054,9.5 C16.8304054,10.3201172 16.1697382,10.984375 15.3540541,10.984375 Z M22.4405405,8.3125 L21.2594595,8.3125 L21.2594595,15.4375 L22.4405405,15.4375 C23.093826,15.4375 23.6216216,14.9068359 23.6216216,14.25 L23.6216216,9.5 C23.6216216,8.84316406 23.093826,8.3125 22.4405405,8.3125 Z" id="Shape" fill-rule="nonzero"></path>
                    </g>
                </g>
            </g>
        </g>
    </g>
</svg>