<?xml version="1.0" encoding="UTF-8"?>
<svg width="188px" height="115px" viewBox="0 0 188 115" version="1.1" xmlns="http://www.w3.org/2000/svg" xmlns:xlink="http://www.w3.org/1999/xlink">
    <!-- Generator: Sketch 52.5 (67469) - http://www.bohemiancoding.com/sketch -->
    <title>Image / Book Imagethriller</title>
    <desc>Created with Sketch.</desc>
    <g id="Image-/-Book-Image" stroke="none" stroke-width="1" fill="none" fill-rule="evenodd">
        <g id="Book-Image">
            <g id="Background-Shape-3" fill="#EBFCFA" fill-rule="nonzero">
                <path d="M101.465433,5.66983374 C109.06078,4.45156509 125.118264,-7.54994584 131.186388,-5.33841885 C163.569816,6.46371632 147.209921,27.9062969 148.052607,44.6614367 C148.906548,61.6403801 114.802636,76.7397439 106.83768,88.2172771 C102.84509,93.9706155 107.659256,111.879887 97.4496716,119.278218 C87.2918046,126.639072 62.1582974,135.141057 51.1342952,119.278218 C40.110293,103.415378 59.7689342,92.1893873 54.23874,81.4082719 C48.7085458,70.6271564 44.0478451,49.267973 61.3189008,43.1070812 C78.5899564,36.9461893 67.4813196,11.1207739 101.465433,5.66983374 Z" id="Path-4" transform="translate(99.582283, 61.326067) rotate(43.000000) translate(-99.582283, -61.326067) "></path>
            </g>
            <g id="Group-7" transform="translate(62.000000, 8.000000)">
                <g id="Book-image" stroke="#262425">
                    <g>
                        <polygon id="Path-5" fill-rule="nonzero" points="0 7 9.37555669e-17 74 55 74 55 7"></polygon>
                        <polyline id="Path" fill-rule="nonzero" points="61.3372941 67.8813477 64 67.8813477 64 0 12.1221133 0 0 7.15411887"></polyline>
                        <polyline id="Path" fill-rule="nonzero" points="12 3 59.7739258 3 59.7739258 71.2202148 55.7608817 71.2202148"></polyline>
                    </g>
                </g>
                <g id="Book-icon-/-Thriller" transform="translate(14.000000, 31.000000)" fill="#000000">
                    <g id="heart-rate-solid" transform="translate(2.000000, 1.000000)">
                        <path d="M23.2253731,8.31267024 L17.8656716,8.31267024 C17.4145634,8.31267024 17.001792,8.56687424 16.8000588,8.96914742 L15.812236,10.9393212 L13.059806,0.875069525 C12.9150196,0.346993194 12.4248302,-0.0189121199 11.8780662,0.000756218446 C11.3283246,0.0159713481 10.8608396,0.403029404 10.7454571,0.938898849 L8.17205597,12.913577 L7.10048787,9.17362392 C6.95421269,8.66410263 6.48709981,8.31267024 5.95522388,8.31267024 L0.595522388,8.31267024 C0.266496269,8.31267024 0,8.57837836 0,8.9064314 L0,10.0939537 C0,10.4220068 0.266496269,10.6877149 0.595522388,10.6877149 L5.05672948,10.6877149 L7.19242164,18.1390463 C7.33906903,18.650052 7.80729851,19 8.33694123,19 C8.35034049,19 8.36411194,19 8.37751119,18.9992578 C8.92353078,18.9807028 9.38766604,18.5940158 9.5023041,18.0611152 L12.0496511,6.20815803 L14.3345961,14.5623775 C14.4646956,15.0372299 14.87504,15.3828953 15.3663386,15.4314954 C15.8561558,15.4760275 16.3281073,15.2203391 16.549195,14.7809559 L18.6018862,10.6877149 L23.2253731,10.6877149 C23.5543993,10.6877149 23.8208955,10.4220068 23.8208955,10.0939537 L23.8208955,8.9064314 C23.8208955,8.57837836 23.5543993,8.31267024 23.2253731,8.31267024 Z" id="Path"></path>
                    </g>
                </g>
            </g>
        </g>
    </g>
</svg>